<?xml version="1.0" encoding="utf-8"?>
<!-- Generator: Adobe Illustrator 15.0.0, SVG Export Plug-In . SVG Version: 6.00 Build 0)  -->
<!DOCTYPE svg PUBLIC "-//W3C//DTD SVG 1.1//EN" "http://www.w3.org/Graphics/SVG/1.1/DTD/svg11.dtd">
<svg version="1.1" id="Layer_1" xmlns="http://www.w3.org/2000/svg" xmlns:xlink="http://www.w3.org/1999/xlink" x="0px" y="0px"
	 width="127px" height="117.695px" viewBox="0 0 127 117.695" enable-background="new 0 0 127 117.695" xml:space="preserve">
<g>
	<path fill-rule="evenodd" clip-rule="evenodd" d="M82.205,45.028c0.463,0,0.925,0,1.388,0c1.867,0.532,3.484,1.448,5.029,2.428
		c1.438,0.912,3.171,1.698,4.509,2.774c1.891,1.521,3.666,3.77,5.377,5.55c1.809,1.883,3.479,3.955,5.549,5.376
		c2.899,1.99,6.343,3.537,9.539,5.203c3.139,1.636,6.473,3.084,9.886,4.683c0.826,1.196,2.293,1.754,3.468,2.602
		c-0.244,1.346-2.537,1.414-3.468,1.214c-0.852-0.183-2.442-1.372-3.815-2.081c-1.361-0.703-2.691-1.499-3.815-2.081
		c-2.637-1.366-5.638-2.277-8.325-3.295c-4.214-1.597-7.5-4.107-11.619-5.896c-3.636-1.579-7.575-2.193-8.845-6.07
		c-0.857-0.588-2.012-0.879-2.602-1.734c-0.356,2.438,0.325,5.339,1.214,7.11c2.203,0.398,3.955,1.248,5.376,2.429
		c0.601,2.926,4.473,2.58,6.07,4.509c-1.521,0.311-3.263,0.55-5.377,0.693c-3.449,0.235-6.814,1.297-8.497-0.173
		c-0.063-1.796,1.879-1.589,2.428-2.775c-1.032-1.514-2.871-1.135-4.162-2.081c-1.861-1.363-1.968-4.087-3.122-6.243
		c-0.691,0.171-0.522-0.519-1.214-0.347c-0.517,0.351-0.597,1.138-1.214,1.388c-1.172,4.147-2.608,8.029-4.162,11.793
		c-3.978,6.485-9.795,11.132-13.008,18.383c0.174,1.445-0.221,2.322-1.561,2.255c0.633-12.548,10.894-15.468,12.14-27.401
		c-1.627-0.7-3.029,0.321-3.988,0.866c-5.876,12.747-11.981,25.133-21.159,34.687c-6.121,6.371-13.808,10.537-23.586,13.181
		c-0.36,0.449-0.74,0.878-1.734,0.693c0.513-1.313,0.953-1.689,2.081-2.428c3.212-2.104,6.966-3.542,10.406-5.55
		c4.934-2.882,9.519-5.892,13.007-10.753c1.734-2.416,3.034-4.423,4.683-6.938c1.07-1.631,2.895-4.006,1.734-6.937
		c-0.844-2.133-4.382-4.628-6.243-4.856c-3.083-0.378-5.123,1.131-6.938,2.429c-3.065,6.184-5.508,12.991-7.978,19.771
		c-0.352,0.342-0.759,0.628-1.041,1.04c0.23,0.925-0.249,1.139-0.521,1.562c-1.198-1.459,0.735-2.713,0.521-4.336
		c-2.92,1.763-4.361,5.004-7.111,6.938c-1.642-0.371-1.772,0.771-3.122,0.693c0.359-0.682,1.077-1.004,1.041-2.081
		c0.936-0.048,0.744-1.222,1.561-1.388c2.014-3.804,4.651-6.996,6.764-10.752c0.775-1.378,1.449-2.967,1.734-4.683
		c-0.385-0.136-0.465-0.576-1.041-0.521c-0.665-0.259-0.391,0.737-0.694,1.04c-0.072,0.072-0.467-0.082-0.521,0
		c-0.294,0.453-0.264,1.09-0.52,1.562c-0.516,0.948-1.407,1.963-2.081,2.948c-4.554,6.65-9.499,13.467-14.048,20.291
		c-0.534-0.13-0.211,0.598-0.867,0.347c0.061,1.159-1.001,1.195-1.214,2.081c-2.933,1.519-4.927,3.976-7.804,5.55
		c-0.275-0.015-0.662,0.083-0.694-0.174c0-0.173,0-0.347,0-0.52c0.116,0,0.231,0,0.347,0c0.616-0.187,0.713-0.813,1.041-1.214
		c1.044-1.279,2.313-2.203,3.295-3.469c3.979-5.122,6.756-10.986,10.752-16.303c2.564-3.411,4.507-7.633,6.764-11.272
		c0.987-1.593,2.197-3.638,3.469-5.55c1.278-1.922,2.557-4.206,3.989-5.203c1.009-0.702,2.757-0.644,3.815-1.214
		c0.722-0.389,1.507-1.713,2.254-2.602c0.786-0.934,1.606-1.828,2.255-2.602c1.381-1.646,2.969-4.543,5.376-4.509
		c1.437,0.021,2.424,1.072,3.469,2.081c2.181,2.106,3.835,4.29,5.376,6.764c1.784,0.124,1.823,1.993,3.815,1.908
		c2.146-4.186,4.196-8.589,6.937-11.967c1.306-1.609,3.432-2.503,5.03-3.815c4.31-3.543,7.436-7.901,11.272-11.793
		C80.259,45.856,81.292,45.502,82.205,45.028z"/>
</g>
<g>
	<path d="M19.981,8.491h-0.554c0.034-0.321,0.051-0.605,0.051-0.851c0-0.923-0.238-1.596-0.712-2.02
		c-0.476-0.424-1.062-0.636-1.759-0.636c-0.964,0-1.931,0.326-2.902,0.979s-1.766,1.562-2.384,2.73s-0.928,2.387-0.928,3.657
		c0,1.291,0.306,2.24,0.918,2.848c0.611,0.608,1.297,0.912,2.056,0.912c0.451,0,0.883-0.06,1.297-0.18
		c0.414-0.119,0.809-0.295,1.185-0.528c0.314-1.073,0.472-1.788,0.472-2.143c0-0.171-0.063-0.306-0.189-0.405
		c-0.127-0.099-0.351-0.148-0.672-0.148c-0.109,0-0.373,0.017-0.79,0.051l0.092-0.502c0.301-0.055,0.605-0.082,0.913-0.082
		c0.246,0,0.55,0.007,0.913,0.021c0.28,0.007,0.489,0.01,0.625,0.01c0.246,0,0.622-0.021,1.128-0.062
		c0.267-0.021,0.496-0.034,0.687-0.041l-0.113,0.523c-0.346-0.007-0.591,0.066-0.736,0.221c-0.145,0.153-0.297,0.555-0.456,1.205
		c-0.563,2.331-1.117,4.018-1.662,5.06c-0.546,1.042-1.167,1.791-1.862,2.246c-0.695,0.454-1.446,0.682-2.25,0.682
		c-0.682,0-1.233-0.156-1.652-0.467s-0.629-0.637-0.629-0.979c0-0.185,0.067-0.342,0.2-0.472c0.134-0.13,0.286-0.195,0.457-0.195
		c0.232,0,0.496,0.164,0.79,0.492c0.335,0.369,0.596,0.608,0.784,0.718s0.388,0.164,0.6,0.164c0.431,0,0.81-0.167,1.138-0.502
		c0.67-0.663,1.33-2.198,1.979-4.604c-0.451,0.246-0.909,0.433-1.374,0.559c-0.465,0.126-0.94,0.19-1.425,0.19
		c-1.203,0-2.15-0.317-2.84-0.953c-0.923-0.847-1.384-2.029-1.384-3.545c0-1.38,0.35-2.678,1.051-3.894s1.675-2.216,2.923-3.002
		c1.247-0.785,2.432-1.178,3.553-1.178c0.608,0,1.323,0.096,2.143,0.287c0.827,0.185,1.456,0.28,1.887,0.287
		C20.169,6.242,19.981,7.424,19.981,8.491z"/>
	<path d="M23.037,16.643h-1.528l0.718-2.758c0.349-1.354,0.653-2.639,0.913-3.855c0.062-0.301,0.092-0.489,0.092-0.564
		c0-0.164-0.075-0.246-0.226-0.246c-0.103,0-0.26,0.07-0.472,0.21c-0.212,0.141-0.595,0.487-1.148,1.041l-0.318-0.359
		c0.656-0.704,1.31-1.232,1.963-1.584c0.652-0.352,1.153-0.528,1.501-0.528c0.123,0,0.221,0.029,0.292,0.087s0.107,0.131,0.107,0.22
		c0,0.089-0.045,0.326-0.135,0.711l-0.446,1.845c0.692-1.091,1.473-2.024,2.343-2.8c0.418-0.37,0.767-0.556,1.048-0.556
		c0.206,0,0.376,0.067,0.514,0.2c0.137,0.134,0.206,0.289,0.206,0.467c0,0.185-0.067,0.342-0.2,0.472
		c-0.133,0.13-0.466,0.284-0.999,0.461c-0.505,0.171-0.917,0.376-1.235,0.616c-0.317,0.239-0.666,0.605-1.045,1.097
		c-0.379,0.493-0.644,0.921-0.795,1.287s-0.38,1.215-0.688,2.548L23.037,16.643z"/>
	<path d="M34.364,8.286h1.46l-0.964,3.583c-0.567,2.082-0.851,3.266-0.851,3.553c0,0.13,0.031,0.229,0.092,0.297
		s0.13,0.103,0.205,0.103c0.116,0,0.253-0.051,0.41-0.154c0.226-0.157,0.653-0.554,1.282-1.189l0.338,0.379
		c-1.374,1.429-2.386,2.143-3.035,2.143c-0.219,0-0.405-0.084-0.559-0.251c-0.153-0.167-0.23-0.405-0.23-0.712
		c0-0.355,0.074-0.831,0.222-1.425c-0.608,0.697-1.359,1.309-2.254,1.835c-0.594,0.349-1.11,0.523-1.547,0.523
		c-0.239,0-0.427-0.079-0.563-0.236c-0.137-0.157-0.205-0.407-0.205-0.75c0-0.267,0.031-0.554,0.092-0.862
		c0.089-0.431,0.314-1.297,0.677-2.598c0.458-1.65,0.687-2.639,0.687-2.967c0-0.192-0.068-0.288-0.205-0.288
		c-0.123,0-0.291,0.063-0.502,0.19s-0.574,0.432-1.087,0.917l-0.451-0.359c0.916-0.82,1.615-1.358,2.097-1.615
		c0.481-0.256,0.87-0.384,1.164-0.384c0.164,0,0.297,0.06,0.4,0.18c0.103,0.12,0.154,0.307,0.154,0.56
		c0,0.472-0.246,1.633-0.738,3.481c-0.438,1.663-0.656,2.611-0.656,2.844c0,0.144,0.046,0.267,0.138,0.37
		c0.092,0.103,0.193,0.154,0.302,0.154c0.382,0,0.925-0.316,1.629-0.949c0.704-0.632,1.165-1.352,1.383-2.158L34.364,8.286z"/>
	<path d="M37.249,10.562l-0.4-0.41c0.622-0.745,1.241-1.295,1.856-1.651s1.148-0.533,1.6-0.533c0.171,0,0.306,0.043,0.405,0.128
		c0.099,0.086,0.148,0.21,0.148,0.375c0,0.198-0.022,0.402-0.066,0.61c-0.045,0.209-0.183,0.703-0.416,1.482
		c1.046-1.046,1.76-1.692,2.143-1.938c0.643-0.417,1.23-0.625,1.764-0.625c0.349,0,0.643,0.164,0.882,0.492s0.359,0.824,0.359,1.487
		c0,1.654-0.516,3.227-1.547,4.717c-1.031,1.49-2.172,2.235-3.422,2.235c-0.492,0-0.983-0.133-1.475-0.4l-0.876,3.384
		c-0.055,0.205-0.082,0.373-0.082,0.502c0,0.253,0.096,0.434,0.287,0.543c0.294,0.171,0.913,0.311,1.856,0.42l-0.133,0.513
		c-1.101-0.089-1.965-0.133-2.594-0.133c-0.649,0-1.49,0.044-2.522,0.133l0.133-0.513c0.52-0.055,0.897-0.198,1.133-0.431
		c0.235-0.232,0.425-0.646,0.569-1.241l1.856-7.783c0.349-1.449,0.523-2.256,0.523-2.42c0-0.178-0.085-0.267-0.256-0.267
		C38.671,9.239,38.097,9.68,37.249,10.562z M39.326,15.402c0.54,0.54,1.093,0.81,1.659,0.81c0.819,0,1.538-0.639,2.156-1.917
		s0.927-2.526,0.927-3.743c0-0.39-0.087-0.685-0.261-0.887c-0.174-0.202-0.407-0.303-0.701-0.303c-0.327,0-0.696,0.161-1.105,0.482
		c-0.634,0.499-1.119,0.995-1.453,1.487c-0.238,0.355-0.464,0.971-0.675,1.846L39.326,15.402z"/>
	<path d="M53.262,8.286h1.46l-0.964,3.583c-0.567,2.082-0.851,3.266-0.851,3.553c0,0.13,0.031,0.229,0.092,0.297
		s0.13,0.103,0.205,0.103c0.116,0,0.253-0.051,0.41-0.154c0.226-0.157,0.653-0.554,1.282-1.189l0.338,0.379
		c-1.374,1.429-2.386,2.143-3.035,2.143c-0.219,0-0.405-0.084-0.559-0.251c-0.154-0.167-0.231-0.405-0.231-0.712
		c0-0.355,0.074-0.831,0.222-1.425c-0.608,0.697-1.359,1.309-2.254,1.835c-0.594,0.349-1.11,0.523-1.547,0.523
		c-0.239,0-0.427-0.079-0.563-0.236c-0.137-0.157-0.205-0.407-0.205-0.75c0-0.267,0.031-0.554,0.092-0.862
		c0.089-0.431,0.314-1.297,0.677-2.598c0.458-1.65,0.687-2.639,0.687-2.967c0-0.192-0.068-0.288-0.205-0.288
		c-0.123,0-0.291,0.063-0.502,0.19s-0.574,0.432-1.087,0.917l-0.451-0.359c0.916-0.82,1.615-1.358,2.097-1.615
		c0.482-0.256,0.87-0.384,1.164-0.384c0.164,0,0.297,0.06,0.4,0.18c0.103,0.12,0.154,0.307,0.154,0.56
		c0,0.472-0.246,1.633-0.738,3.481c-0.438,1.663-0.656,2.611-0.656,2.844c0,0.144,0.046,0.267,0.138,0.37
		c0.092,0.103,0.193,0.154,0.302,0.154c0.382,0,0.925-0.316,1.629-0.949c0.704-0.632,1.165-1.352,1.383-2.158L53.262,8.286z"/>
	<path d="M60.259,14.171l0.349,0.369c-0.533,0.602-1.164,1.15-1.892,1.646c-0.729,0.495-1.328,0.743-1.8,0.743
		c-0.212,0-0.386-0.081-0.523-0.241c-0.137-0.16-0.205-0.381-0.205-0.661c0-0.547,0.211-1.682,0.635-3.404l1.106-4.501
		c0.403-1.627,0.741-2.717,1.014-3.271c0.423-0.837,1.022-1.488,1.797-1.951c0.775-0.463,1.593-0.694,2.453-0.694
		c0.293,0,0.524,0.071,0.691,0.211c0.167,0.142,0.251,0.312,0.251,0.511c0,0.221-0.082,0.401-0.245,0.542
		c-0.164,0.141-0.402,0.211-0.715,0.211c-0.204,0-0.494-0.034-0.869-0.103c-0.327-0.055-0.63-0.082-0.909-0.082
		s-0.49,0.058-0.633,0.173c-0.198,0.164-0.376,0.507-0.537,1.031c-0.16,0.523-0.42,1.558-0.782,3.102L58.422,12.1
		c-0.506,2.153-0.759,3.278-0.759,3.374c0,0.219,0.079,0.328,0.236,0.328c0.15,0,0.369-0.089,0.657-0.267
		C59.123,15.18,59.691,14.725,60.259,14.171z"/>
	<path d="M39.074,42.285l-0.81-11.044c-0.178,1.859-0.506,3.594-0.984,5.204c-0.479,1.609-1.022,2.854-1.63,3.732
		s-1.23,1.495-1.866,1.851s-1.265,0.533-1.887,0.533c-0.376,0-0.665-0.077-0.866-0.23c-0.202-0.154-0.303-0.34-0.303-0.559
		c0-0.185,0.073-0.345,0.221-0.482c0.146-0.137,0.333-0.205,0.559-0.205c0.164,0,0.4,0.036,0.708,0.107
		c0.28,0.072,0.513,0.108,0.697,0.108c0.321,0,0.656-0.12,1.005-0.358c0.526-0.355,1.047-0.992,1.564-1.911
		c0.516-0.918,0.977-2.199,1.384-3.842s0.662-3.246,0.764-4.81c-1.552,0-2.813,0.386-3.784,1.159
		c-0.772,0.615-1.159,1.302-1.159,2.061c0,0.335,0.182,0.738,0.547,1.21c0.196,0.253,0.294,0.458,0.294,0.615
		c0,0.178-0.056,0.325-0.168,0.441c-0.112,0.116-0.246,0.174-0.402,0.174c-0.265,0-0.5-0.15-0.703-0.451
		c-0.279-0.403-0.418-0.882-0.418-1.436c0-0.779,0.262-1.526,0.784-2.24c0.523-0.714,1.248-1.258,2.174-1.631
		c0.926-0.372,2.012-0.562,3.256-0.569c0.67,0,1.207-0.062,1.61-0.185c-0.022,0.615-0.032,0.947-0.028,0.995
		c-0.003,0.062,0.006,0.202,0.027,0.42l0.595,7.809c1.654-2.884,3.27-5.258,4.848-7.122c1.12-1.319,2.096-2.211,2.928-2.676
		c-0.475,1.299-0.983,3.011-1.526,5.137l-1.258,4.922c-0.069,0.273-0.162,0.673-0.278,1.2l-0.248,1.097
		c0.52,0.123,0.995,0.185,1.426,0.185c0.349,0,0.722-0.041,1.118-0.123l-0.133,0.595c-0.349,0.062-0.619,0.092-0.811,0.092
		c-0.28,0-0.684-0.031-1.21-0.092c-0.431-0.055-0.814-0.082-1.149-0.082c-0.355,0-0.759,0.068-1.21,0.205
		c0.377-0.984,0.771-2.307,1.182-3.968l0.792-3.138c0.335-1.354,0.627-2.283,0.874-2.789c-0.549,0.623-1.396,1.766-2.541,3.429
		c-0.919,1.341-1.948,3.039-3.086,5.092L39.074,42.285z"/>
	<path d="M53.912,33.219c0.67,0,1.227,0.267,1.671,0.8s0.667,1.275,0.667,2.225c0,1.518-0.533,2.88-1.6,4.086
		c-1.066,1.207-2.194,1.81-3.384,1.81c-0.731,0-1.321-0.239-1.769-0.718s-0.671-1.131-0.671-1.958c0-1.436,0.41-2.762,1.23-3.979
		C51.088,33.975,52.374,33.219,53.912,33.219z M53.04,33.988c-0.581,0-1.144,0.415-1.687,1.246c-0.544,0.83-0.815,1.977-0.815,3.44
		c0,0.889,0.167,1.589,0.502,2.102c0.246,0.376,0.574,0.564,0.984,0.564c0.574,0,1.097-0.355,1.569-1.066
		c0.602-0.923,0.902-2.068,0.902-3.435c0-1.025-0.139-1.757-0.415-2.194C53.804,34.207,53.457,33.988,53.04,33.988z"/>
	<path d="M57.531,35.629l-0.349-0.359c0.876-0.838,1.574-1.395,2.094-1.669c0.52-0.274,0.964-0.412,1.334-0.412
		c0.144,0,0.256,0.031,0.338,0.092s0.124,0.133,0.124,0.215c0,0.062-0.018,0.171-0.051,0.328l-0.462,2.063
		c0.696-0.773,1.569-1.495,2.621-2.166c0.56-0.349,1.02-0.523,1.381-0.523c0.267,0,0.475,0.085,0.625,0.256s0.225,0.417,0.225,0.738
		c0,0.212-0.03,0.451-0.092,0.718c-0.108,0.444-0.395,1.412-0.858,2.902c-0.436,1.395-0.654,2.321-0.654,2.779
		c0,0.14,0.021,0.245,0.062,0.315c0.041,0.07,0.099,0.105,0.174,0.105c0.198,0,0.509-0.191,0.933-0.574
		c0.301-0.273,0.602-0.526,0.902-0.759l0.257,0.369c-0.629,0.694-1.282,1.252-1.959,1.673c-0.431,0.272-0.786,0.408-1.066,0.408
		c-0.26,0-0.461-0.094-0.605-0.282c-0.144-0.188-0.215-0.494-0.215-0.917c0-0.608,0.379-2.123,1.138-4.542
		c0.232-0.861,0.349-1.364,0.349-1.507c0-0.212-0.126-0.318-0.379-0.318c-0.273,0-0.625,0.144-1.056,0.431
		c-0.643,0.425-1.179,0.924-1.61,1.5c-0.273,0.37-0.502,0.958-0.687,1.766l-0.831,3.584h-1.528c0.287-1.027,0.537-2.009,0.749-2.947
		l0.913-3.902c0.034-0.157,0.051-0.27,0.051-0.338c0-0.185-0.068-0.277-0.205-0.277c-0.109,0-0.267,0.072-0.472,0.217
		C58.297,34.877,57.9,35.222,57.531,35.629z"/>
	<path d="M69.754,31.64l1.628-0.625l-0.737,2.87h2.124l-0.164,0.728h-2.125l-0.895,3.437c-0.284,1.031-0.426,1.749-0.426,2.152
		c0,0.185,0.039,0.318,0.118,0.4c0.078,0.082,0.186,0.123,0.322,0.123c0.213,0,0.537-0.126,0.975-0.379
		c0.574-0.335,1.121-0.714,1.641-1.138l0.39,0.472c-1.497,1.128-2.499,1.818-3.005,2.071s-0.912,0.379-1.22,0.379
		c-0.253,0-0.453-0.092-0.6-0.277c-0.147-0.185-0.221-0.485-0.221-0.902c0-0.492,0.13-1.244,0.39-2.256l1.044-4.081h-1.661
		l0.185-0.728h1.663L69.754,31.64z"/>
	<path d="M80.592,33.045l0.677-0.144L80.5,35.496c-0.308,1.032-0.599,2.222-0.871,3.568c-0.151,0.731-0.227,1.203-0.227,1.415
		s0.086,0.318,0.257,0.318c0.109,0,0.283-0.072,0.522-0.215c0.424-0.253,0.831-0.567,1.221-0.943l0.328,0.4
		c-0.779,0.711-1.278,1.142-1.497,1.292c-0.438,0.301-0.854,0.523-1.251,0.667c-0.26,0.096-0.513,0.144-0.759,0.144
		c-0.178,0-0.312-0.041-0.399-0.123c-0.09-0.082-0.134-0.202-0.134-0.359c0-0.103,0.027-0.243,0.082-0.42l0.41-1.395
		c-0.588,0.704-1.289,1.309-2.103,1.815c-0.499,0.314-0.957,0.472-1.373,0.472c-0.397,0-0.701-0.14-0.913-0.42
		c-0.287-0.376-0.431-0.868-0.431-1.477c0-0.725,0.193-1.531,0.579-2.42c0.387-0.889,0.904-1.695,1.554-2.42s1.333-1.258,2.051-1.6
		c0.554-0.26,1.265-0.39,2.133-0.39c0.219,0,0.441,0.014,0.666,0.041L80.592,33.045z M79.32,34.614
		c-0.369-0.075-0.68-0.113-0.933-0.113c-0.615,0-1.152,0.169-1.61,0.508c-0.458,0.338-0.883,0.947-1.276,1.825
		c-0.393,0.878-0.589,1.755-0.589,2.63c0,0.465,0.078,0.8,0.235,1.005s0.362,0.308,0.615,0.308c0.472,0,0.978-0.254,1.518-0.764
		s0.937-1.243,1.189-2.2L79.32,34.614z"/>
	<path d="M82.725,35.629l-0.349-0.359c0.876-0.838,1.573-1.395,2.094-1.669c0.52-0.274,0.965-0.412,1.334-0.412
		c0.144,0,0.257,0.031,0.339,0.092s0.123,0.133,0.123,0.215c0,0.062-0.018,0.171-0.052,0.328l-0.462,2.063
		c0.696-0.773,1.569-1.495,2.62-2.166c0.56-0.349,1.021-0.523,1.383-0.523c0.266,0,0.474,0.085,0.624,0.256s0.226,0.417,0.226,0.738
		c0,0.212-0.031,0.451-0.093,0.718c-0.108,0.444-0.395,1.412-0.857,2.902C89.218,39.208,89,40.134,89,40.592
		c0,0.14,0.021,0.245,0.062,0.315c0.041,0.07,0.099,0.105,0.175,0.105c0.197,0,0.509-0.191,0.933-0.574
		c0.301-0.273,0.602-0.526,0.902-0.759l0.257,0.369c-0.63,0.694-1.282,1.252-1.959,1.673c-0.431,0.272-0.786,0.408-1.066,0.408
		c-0.26,0-0.461-0.094-0.605-0.282c-0.143-0.188-0.215-0.494-0.215-0.917c0-0.608,0.379-2.123,1.139-4.542
		c0.231-0.861,0.348-1.364,0.348-1.507c0-0.212-0.126-0.318-0.379-0.318c-0.273,0-0.625,0.144-1.057,0.431
		c-0.643,0.425-1.179,0.924-1.609,1.5c-0.273,0.37-0.502,0.958-0.688,1.766l-0.83,3.584h-1.527c0.287-1.027,0.536-2.009,0.748-2.947
		l0.912-3.902c0.034-0.157,0.052-0.27,0.052-0.338c0-0.185-0.068-0.277-0.205-0.277c-0.109,0-0.267,0.072-0.472,0.217
		C83.49,34.877,83.094,35.222,82.725,35.629z"/>
</g>
</svg>
